<?xml version="1.0" encoding="UTF-8" standalone="no"?>
<svg
   width="32.041"
   height="32"
   viewBox="0 0 8.4775148 8.466667"
   version="1.1"
   id="svg2"
   sodipodi:docname="fedora-lit-symbolic.svg"
   inkscape:version="1.3 (0e150ed6c4, 2023-07-21)"
   xmlns:inkscape="http://www.inkscape.org/namespaces/inkscape"
   xmlns:sodipodi="http://sodipodi.sourceforge.net/DTD/sodipodi-0.dtd"
   xmlns="http://www.w3.org/2000/svg"
   xmlns:svg="http://www.w3.org/2000/svg">
  <defs
     id="defs2" />
  <sodipodi:namedview
     id="namedview2"
     pagecolor="#ffffff"
     bordercolor="#000000"
     borderopacity="0.25"
     inkscape:showpageshadow="2"
     inkscape:pageopacity="0.0"
     inkscape:pagecheckerboard="0"
     inkscape:deskcolor="#d1d1d1"
     inkscape:zoom="14.14"
     inkscape:cx="15.275813"
     inkscape:cy="18.670438"
     inkscape:window-width="1512"
     inkscape:window-height="876"
     inkscape:window-x="0"
     inkscape:window-y="0"
     inkscape:window-maximized="1"
     inkscape:current-layer="svg2" />
  <g
     id="g2">
    <path
       id="path8"
       style="fill:#bebebe;fill-opacity:1;stroke-width:0.0631378"
       d="M 4.2421184 0 C 1.9007019 0 0.0051757968 1.8934417 0.0010335287 4.2312664 L 0 4.2312664 L 0 7.5070355 L 0.0010335287 7.5070355 C 0.0021226098 8.0372292 0.43287501 8.4666669 0.96428225 8.4666669 L 4.2426352 8.4666669 C 6.5844667 8.4651511 8.479586 6.571959 8.479586 4.2354005 C 8.4795891 1.8975758 6.58199 0.0036173504 4.2385011 0.0036173504 L 4.2421184 0 z M 5.1025311 1.7409791 L 5.1025311 1.7425293 C 5.8143417 1.7425293 6.486426 2.2864088 6.486426 3.037024 C 6.486426 3.1066492 6.4864841 3.1761596 6.4750571 3.2550986 C 6.4553354 3.4547852 6.2725811 3.5984778 6.0735312 3.5703248 C 5.8744805 3.5418427 5.7395798 3.3532906 5.7763918 3.1558798 C 5.7797618 3.1333492 5.7810426 3.0978399 5.7810426 3.037024 C 5.7810426 2.6113521 5.4318328 2.4468791 5.1020143 2.4468791 C 4.772279 2.4468791 4.4751005 2.7237968 4.4746624 3.037024 C 4.4803624 3.3991824 4.4746624 3.7585512 4.4746624 4.1201621 L 5.0870281 4.1155112 C 5.5648838 4.1056293 5.5699185 4.8242645 5.0921958 4.8208945 L 4.4751792 4.8255454 C 4.4736751 5.116857 4.4771859 5.063826 4.4756959 5.2105348 C 4.4756959 5.2105348 4.4811783 5.5668677 4.4705283 5.8368532 C 4.3966554 6.6300361 3.720163 7.2641563 2.9073162 7.2641563 C 2.0456063 7.2641563 1.3358358 6.5611787 1.3358358 5.6988771 C 1.361708 4.8121325 2.0697423 4.1142191 2.9620932 4.1222291 L 3.4597372 4.1186118 L 3.4597372 4.8224448 L 2.9620932 4.8270957 L 2.9595094 4.8270957 C 2.4692347 4.8415767 2.0490891 5.1741517 2.0412191 5.6983603 C 2.0412191 6.1758711 2.4275592 6.5582562 2.9073162 6.5582562 C 3.386413 6.5582562 3.7697958 6.2102316 3.7697958 5.6988771 L 3.7692791 3.0334067 C 3.7695891 2.9839277 3.7710838 2.9443241 3.7765138 2.8897462 C 3.8573838 2.2377511 4.441239 1.7409791 5.1025311 1.7409791 z " />
  </g>
</svg>
