<?xml version="1.0" encoding="UTF-8" standalone="no"?>
<svg
   width="128.089"
   height="128"
   viewBox="0 0 33.890216 33.866668"
   version="1.1"
   id="svg2"
   sodipodi:docname="fedora-updates-symbolic.svg"
   inkscape:version="1.3 (0e150ed6c4, 2023-07-21)"
   xmlns:inkscape="http://www.inkscape.org/namespaces/inkscape"
   xmlns:sodipodi="http://sodipodi.sourceforge.net/DTD/sodipodi-0.dtd"
   xmlns="http://www.w3.org/2000/svg"
   xmlns:svg="http://www.w3.org/2000/svg">
  <defs
     id="defs2" />
  <sodipodi:namedview
     id="namedview2"
     pagecolor="#ffffff"
     bordercolor="#000000"
     borderopacity="0.25"
     inkscape:showpageshadow="2"
     inkscape:pageopacity="0.0"
     inkscape:pagecheckerboard="0"
     inkscape:deskcolor="#d1d1d1"
     inkscape:zoom="2.4996225"
     inkscape:cx="15.202296"
     inkscape:cy="18.802839"
     inkscape:window-width="1512"
     inkscape:window-height="876"
     inkscape:window-x="0"
     inkscape:window-y="0"
     inkscape:window-maximized="1"
     inkscape:current-layer="svg2" />
  <g
     id="g2"
     transform="scale(3.9916643,4)">
    <path
       id="path8"
       style="fill:#bebebe;fill-opacity:1;stroke-width:0.0631378"
       d="M 4.2421738 0 C 1.9007596 0 0.0051779528 1.893444 0.001035687 4.2312664 L 0 4.2312664 L 0 7.5070355 L 0.001035687 7.5070355 C 0.0021247659 8.0372287 0.43281785 8.4666669 0.96422456 8.4666669 L 4.2426916 8.4666669 C 4.5328998 8.466479 4.8158875 8.436938 5.0896247 8.3814007 L 5.0896247 5.1831463 L 8.3715872 5.1831463 C 8.4414452 4.8783296 8.4795576 4.5614076 8.4795576 4.2354005 C 8.4795607 1.8975781 6.5820355 0.0036173503 4.2385489 0.0036173503 L 4.2421738 0 z M 5.1027002 1.7411082 L 5.1023118 1.7424001 C 5.8141225 1.7424001 6.4861191 2.2865379 6.4861191 3.0371532 C 6.4861191 3.1067784 6.4866713 3.176418 6.4752444 3.2553569 C 6.4555226 3.4550435 6.2727065 3.5984778 6.0736567 3.5703248 C 5.874606 3.5418427 5.7394732 3.3531614 5.7762851 3.1557506 C 5.7796551 3.13322 5.7809457 3.0978399 5.7809457 3.037024 C 5.7809457 2.6113521 5.4320008 2.4470083 5.1021824 2.4470083 C 4.7724471 2.4470083 4.4752531 2.7237968 4.474815 3.037024 C 4.480515 3.3991824 4.474815 3.7585512 4.474815 4.120162 L 5.086906 4.1156404 C 5.5647616 4.1057585 5.5700661 4.8241353 5.0923433 4.8207653 L 4.4749444 4.825287 C 4.4734403 5.1165986 4.4772112 5.0639551 4.4757212 5.210664 C 4.4757212 5.210664 4.4809338 5.5669968 4.4702839 5.8369824 C 4.3964109 6.6301653 3.7200202 7.2640271 2.9071733 7.2640271 C 2.0454635 7.2640271 1.3356478 6.5610495 1.3356478 5.6987479 C 1.36152 4.8120033 2.0698433 4.1144775 2.9621942 4.1224875 L 3.4598418 4.1187409 L 3.4598418 4.822574 L 2.9621942 4.8270957 L 2.959605 4.8270957 C 2.4693303 4.8415766 2.0489501 5.1740225 2.0410801 5.6982311 C 2.0410801 6.1757419 2.4276753 6.5585146 2.9074322 6.5585146 C 3.386529 6.5585146 3.7699005 6.21049 3.7699005 5.6991355 L 3.7691238 3.0334066 C 3.7694338 2.9839277 3.7710731 2.9445825 3.7765031 2.8900045 C 3.8573731 2.2380095 4.4414082 1.7411082 5.1027002 1.7411082 z " />
  </g>
  <path
     style="fill:#bebebe;fill-opacity:1;fill-rule:nonzero;stroke:none;stroke-width:0.178184;stroke-linecap:round;stroke-linejoin:round;stroke-miterlimit:4;stroke-dasharray:none;stroke-dashoffset:0;stroke-opacity:1"
     d="m 27.724997,21.456682 a 6.2090079,6.165842 0 0 0 -6.253289,6.122201 6.2090079,6.165842 0 0 0 6.166577,6.209823 6.2090079,6.165842 0 0 0 6.251782,-6.123714 6.2090079,6.165842 0 0 0 -6.16507,-6.20831 z m -0.0091,0.860948 1.070485,1.031003 2.978681,2.99957 c 0.332929,0.338816 0.490576,0.837965 0.412206,1.304913 l -0.0088,1.256833 -1.312622,-0.0091 -1.687047,-0.0057 -0.02842,4.042935 -2.99811,-0.0208 0.02842,-4.042941 -1.500529,-0.0164 -0.233421,-0.0016 -1.265634,-0.0088 0.0082,-1.163506 c -0.0022,-0.04648 -0.0019,-0.09354 9.61e-4,-0.139992 -0.05692,-0.45341 0.10603,-0.928068 0.430199,-1.252406 l 3.020571,-2.957993 z"
     id="path4241"
     inkscape:connector-curvature="0" />
</svg>
