<?xml version="1.0" encoding="UTF-8" standalone="no"?>
<svg
   width="32.041"
   height="32"
   viewBox="0 0 8.4775148 8.466667"
   version="1.1"
   id="svg2"
   sodipodi:docname="fedora-unknown-symbolic.svg"
   inkscape:version="1.3 (0e150ed6c4, 2023-07-21)"
   xmlns:inkscape="http://www.inkscape.org/namespaces/inkscape"
   xmlns:sodipodi="http://sodipodi.sourceforge.net/DTD/sodipodi-0.dtd"
   xmlns="http://www.w3.org/2000/svg"
   xmlns:svg="http://www.w3.org/2000/svg">
  <defs
     id="defs2" />
  <sodipodi:namedview
     id="namedview2"
     pagecolor="#ffffff"
     bordercolor="#000000"
     borderopacity="0.25"
     inkscape:showpageshadow="2"
     inkscape:pageopacity="0.0"
     inkscape:pagecheckerboard="0"
     inkscape:deskcolor="#d1d1d1"
     inkscape:zoom="14.14"
     inkscape:cx="15.275813"
     inkscape:cy="18.670438"
     inkscape:window-width="1512"
     inkscape:window-height="876"
     inkscape:window-x="0"
     inkscape:window-y="0"
     inkscape:window-maximized="1"
     inkscape:current-layer="svg2" />
  <g
     id="g2">
    <path
       id="path8"
       style="fill:#bebebe;fill-opacity:1;stroke-width:0.0631378"
       d="M 4.2421184 0 C 2.3562284 0 0.76034322 1.228911 0.20825603 2.9285035 L 3.7734132 2.9285035 C 3.7743532 2.9158263 3.7750895 2.9040619 3.7765138 2.8897462 C 3.8573838 2.2377511 4.441239 1.7409791 5.1025311 1.7409791 L 5.1025311 1.7425293 C 5.7794625 1.7425293 6.4200662 2.2346849 6.4812583 2.9285035 L 8.2723635 2.9285035 C 7.7206911 1.2309048 6.1246357 0.0036173504 4.2385011 0.0036173504 L 4.2421184 0 z M 5.1020143 2.4468791 C 4.8110724 2.4468791 4.5463515 2.6626276 4.4875815 2.9285035 L 5.7717409 2.9285035 C 5.7170474 2.5836594 5.4019812 2.4468791 5.1020143 2.4468791 z M 0.018603516 3.8591961 C 0.0076910293 3.981975 0.0012560136 4.1056997 0.0010335287 4.2312664 L 0 4.2312664 L 0 7.5070355 L 0.0010335287 7.5070355 C 0.0021226087 8.0372287 0.43287554 8.4666669 0.96428225 8.4666669 L 4.2426352 8.4666669 C 5.8910079 8.4655999 7.3169257 7.5267101 8.0175987 6.1562135 L 4.4048992 6.1562135 C 4.2050344 6.7934702 3.6074332 7.2641563 2.9073162 7.2641563 C 2.2045582 7.2641563 1.6026294 6.7964317 1.4045655 6.1562135 L 0.018603516 6.1562135 L 0.018603516 3.8591961 z M 2.1740276 6.1562135 C 2.3270331 6.3981581 2.5972816 6.5582562 2.9073162 6.5582562 C 3.2234474 6.5582562 3.4971664 6.4062091 3.6473227 6.1562135 L 2.1740276 6.1562135 z " />
  </g>
  <circle
     style="display:inline;fill:#bebebe;fill-opacity:1;stroke:none;stroke-width:0.0445614"
     id="path4955-3"
     cx="1.9062454"
     cy="4.5453439"
     r="0.84791577" />
  <circle
     style="display:inline;fill:#bebebe;fill-opacity:1;stroke:none;stroke-width:0.0445614"
     id="path4957-3"
     cx="4.1673555"
     cy="4.5453439"
     r="0.84791577" />
  <circle
     style="display:inline;fill:#bebebe;fill-opacity:1;stroke:none;stroke-width:0.0445614"
     id="path4959-7"
     cx="6.4284358"
     cy="4.5453439"
     r="0.84791577" />
</svg>
