<?xml version="1.0" encoding="UTF-8" standalone="no"?>
<svg
   width="128.089"
   height="128"
   viewBox="0 0 33.890216 33.866668"
   version="1.1"
   id="svg2"
   sodipodi:docname="fedora-updates-logo.svg"
   inkscape:version="1.3 (0e150ed6c4, 2023-07-21)"
   xmlns:inkscape="http://www.inkscape.org/namespaces/inkscape"
   xmlns:sodipodi="http://sodipodi.sourceforge.net/DTD/sodipodi-0.dtd"
   xmlns="http://www.w3.org/2000/svg"
   xmlns:svg="http://www.w3.org/2000/svg">
  <defs
     id="defs2" />
  <sodipodi:namedview
     id="namedview2"
     pagecolor="#ffffff"
     bordercolor="#000000"
     borderopacity="0.25"
     inkscape:showpageshadow="2"
     inkscape:pageopacity="0.0"
     inkscape:pagecheckerboard="0"
     inkscape:deskcolor="#d1d1d1"
     inkscape:zoom="2.4996225"
     inkscape:cx="15.202296"
     inkscape:cy="18.802839"
     inkscape:window-width="1512"
     inkscape:window-height="876"
     inkscape:window-x="0"
     inkscape:window-y="0"
     inkscape:window-maximized="1"
     inkscape:current-layer="svg2" />
  <g
     id="g2"
     transform="scale(3.9916643,4)">
    <path
       id="path8"
       style="fill:#bebebe;fill-opacity:1;stroke-width:0.0631378"
       d="M 4.2421184,0 C 1.9007019,0 0.0051758,1.8934417 0.00103353,4.2312664 H 0 V 7.5070355 H 0.00103353 C 0.00212261,8.0372292 0.43287501,8.4666669 0.96428225,8.4666669 H 4.2426352 C 4.5328436,8.466479 4.8158746,8.4369381 5.089612,8.3814008 V 5.1831463 H 8.3715823 C 8.4414404,4.8783293 8.479586,4.5614079 8.479586,4.2354005 8.4795891,1.8975758 6.58199,0.00361735 4.2385011,0.00361735 Z" />
    <path
       fill="#ffffff"
       d="m 5.1027649,1.7411301 c -0.6612927,0 -1.2454467,0.496876 -1.3263168,1.1488717 -0.00543,0.054578 -0.007,0.09392 -0.00731,0.143399 l 7.76e-4,2.6657034 c 0,0.511355 -0.3834488,0.8593741 -0.8625461,0.8593741 -0.4797574,0 -0.8662642,-0.3826858 -0.8662642,-0.860197 0.00787,-0.5242092 0.4281805,-0.8566762 0.9184556,-0.8711572 h 0.00262 L 3.459904,4.8225493 V 4.1187186 l -0.4977246,0.00375 c -0.8923518,-0.00801 -1.6006566,0.6894927 -1.6265288,1.5762382 0,0.8623025 0.7097489,1.5652789 1.5714596,1.5652789 0.8128477,0 1.4893086,-0.6338633 1.5631816,-1.427047 0.01065,-0.2699858 0.00546,-0.6262889 0.00546,-0.6262889 0.00149,-0.146709 -0.00228,-0.094026 -7.759e-4,-0.3853379 l 0.6174025,-0.00457 c 0.4777232,0.00337 0.4723561,-0.7149634 -0.0055,-0.7050815 l -0.6120343,0.00454 c 0,-0.3616112 0.0057,-0.7209867 0,-1.0831455 4.381e-4,-0.3132275 0.2976258,-0.5900197 0.6273614,-0.5900197 0.3298188,0 0.6786799,0.1643474 0.6786799,0.5900197 0,0.060816 -0.00122,0.096217 -0.00459,0.1187476 -0.036812,0.197411 0.098284,0.3860821 0.2973349,0.4145642 0.19905,0.028153 0.3818337,-0.1153503 0.4015555,-0.3150371 0.011427,-0.078939 0.010994,-0.1485837 0.010994,-0.218209 0,-0.750616 -0.6720644,-1.294739 -1.3838758,-1.294739 z"
       id="path2"
       style="stroke-width:0.0631297" />
  </g>
  <path
     style="fill:#bebebe;fill-opacity:1;fill-rule:nonzero;stroke:none;stroke-width:0.178184;stroke-linecap:round;stroke-linejoin:round;stroke-miterlimit:4;stroke-dasharray:none;stroke-dashoffset:0;stroke-opacity:1"
     d="m 27.724997,21.456682 a 6.2090079,6.165842 0 0 0 -6.253289,6.122201 6.2090079,6.165842 0 0 0 6.166577,6.209823 6.2090079,6.165842 0 0 0 6.251782,-6.123714 6.2090079,6.165842 0 0 0 -6.16507,-6.20831 z m -0.0091,0.860948 1.070485,1.031003 2.978681,2.99957 c 0.332929,0.338816 0.490576,0.837965 0.412206,1.304913 l -0.0088,1.256833 -1.312622,-0.0091 -1.687047,-0.0057 -0.02842,4.042935 -2.99811,-0.0208 0.02842,-4.042941 -1.500529,-0.0164 -0.233421,-0.0016 -1.265634,-0.0088 0.0082,-1.163506 c -0.0022,-0.04648 -0.0019,-0.09354 9.61e-4,-0.139992 -0.05692,-0.45341 0.10603,-0.928068 0.430199,-1.252406 l 3.020571,-2.957993 z"
     id="path4241"
     inkscape:connector-curvature="0" />
</svg>
